# xmcd CD database file
#
# Track frame offsets:
#	182
#	15485
#	28200
#	39987
#	52330
#	64427
#	77742
#	89580
#	100447
#	114327
#	127872
#	141125
#	153400
#	167727
#	182102
#	194602
#	207507
#	220225
#	232200
#	245805
#	259002
#	271000
#	283925
#	297070
#
# Disc length: 4132 seconds
#
# Revision: 0
# Processed by: cddbd v1.5.2PL0 Copyright (c) Steve Scherf et al.
# Submitted via: CDex 1.51
#
DISCID=74102218
DTITLE=Jack Gillum and Washboard Sam - Harmonica And Washboard Blues
DYEAR=1991
DGENRE=Jazz
TTITLE0=My Old Lizzie
TTITLE1=I'm That Man In The Mine
TTITLE2=Good Old 51 Highway
TTITLE3=You're Laughing Now
TTITLE4=I'm Gonna Get It
TTITLE5=Let Her Go
TTITLE6=She Won't Treat Me Kind
TTITLE7=I'll Get Along Somehow
TTITLE8=Got To Reap What You Sow
TTITLE9=Keyhole Blues
TTITLE10=She Belongs To Me
TTITLE11=Key To The Highway
TTITLE12=Back Door
TTITLE13=We Gonna Move
TTITLE14=Lowland Blues
TTITLE15=Mountain Blues
TTITLE16=Yellow Black And Brown
TTITLE17=I'm Gonna Keep My Hair Parted
TTITLE18=Warehouse Blues
TTITLE19=This Time Is My Time
TTITLE20=Booker T. Blues
TTITLE21=How Can I Play Fair
TTITLE22=She Fooled Me
TTITLE23=Yes I Got Your Woman
EXTD=YEAR: 1991
EXTT0=
EXTT1=
EXTT2=
EXTT3=
EXTT4=
EXTT5=
EXTT6=
EXTT7=
EXTT8=
EXTT9=
EXTT10=
EXTT11=
EXTT12=
EXTT13=
EXTT14=
EXTT15=
EXTT16=
EXTT17=
EXTT18=
EXTT19=
EXTT20=
EXTT21=
EXTT22=
EXTT23=
PLAYORDER=
